<svg id="Layer_1" data-name="Layer 1" xmlns="http://www.w3.org/2000/svg" viewBox="0 0 717.79 346.32"><defs><style>.cls-1{fill:#fff;}.cls-2,.cls-6{fill:#0e6848;}.cls-2,.cls-3,.cls-4,.cls-5{stroke:#fefefe;stroke-width:4px;}.cls-3,.cls-7{fill:#227457;}.cls-4,.cls-8{fill:#fefefe;}.cls-5,.cls-9{fill:#27775b;}</style></defs><path class="cls-1" d="M615.13,162.43h10.43c-2.82,33.49-5.62,66.8-8.43,100.31-3.45.58-6.57.33-10.45.18q-3.07-23-6.15-46c-3.6,15.07-4.47,30.49-7.29,45.82-3.23.65-6.33.34-10.28.27-2.77-33.4-5.52-66.6-8.28-100,3.21-1.19,6.5-.61,10.41-.44q1.88,21,3.72,41.8l1.26.07c1.61-13.89,3.21-27.78,4.84-41.87h10.4q2.27,21.71,4.53,43.44l.9,0C612.19,191.6,613.64,177.26,615.13,162.43Z" transform="translate(-54.05 -114.84)"/><path class="cls-1" d="M702.76,413.41a57.11,57.11,0,0,1-12.12,0L678.85,358.9a63.69,63.69,0,0,0-11.65-.2v54.75H654.92V295c9.36,0,18.65-.39,27.87.11s18.32,8.9,18.56,17c.31,10.42.22,20.84,0,31.26-.12,6.43-4.1,11.35-10.53,15.5C694.78,376.92,698.74,395.05,702.76,413.41ZM667.4,348c3.28,0,5.81,0,8.34,0,1.69,0,3.39-.08,5.07-.2,6.07-.44,10.09-3.36,10.28-8.33q.46-12.45-.07-24.92c-.22-5-4.48-8.92-10-9.7a58.07,58.07,0,0,0-13.63-.11Z" transform="translate(-54.05 -114.84)"/><path class="cls-1" d="M474.26,413.73V295.06c9.1,0,18-.49,26.74.13,9.76.69,18.49,9.28,18.67,17.61.21,9.55.1,19.1,0,28.64,0,5-3.1,9.06-7.33,13.12,7.18,5.44,7.76,12.51,7.42,19.93-.3,6.71,0,13.43-.07,20.15-.1,10.89-9.85,19-22.93,19.08C489.41,413.77,482,413.73,474.26,413.73Zm11.43-9.56c3.31,0,6.23.07,9.15,0,9.73-.29,14.57-4.46,14.7-12.71.08-5.3-.32-10.62.08-15.9.93-12.26-4.57-18-20.66-17-1,.06-2.11-.21-3.27.63Zm0-56.41c4.4,0,8.38.16,12.33,0,7.72-.4,11.39-3.64,11.54-10.12.12-4.94-.28-9.89.08-14.81,1.18-16.17-6.12-19.32-22.66-18.24a4.81,4.81,0,0,0-1.29.54Z" transform="translate(-54.05 -114.84)"/><path class="cls-1" d="M553.41,359c-4-.71-7.74-.34-12.06-.29v54.81h-11V295.19c9.41,0,19.13-.72,28.62.21,9.88,1,17.78,9.81,17.9,18.21.11,8.13-.27,16.27.1,24.38.4,8.58-2.63,15.63-11.43,20.8,3.88,18,7.76,36,11.68,54.3-4,1.16-7.75.51-12,.49C561.3,395.52,557.42,377.52,553.41,359Zm-11.59-54.45v43.43c3.66,0,6.81,0,10,0,1.26,0,2.53-.08,3.79-.19,5.73-.53,9.53-3.36,9.7-8.14.29-8.45.34-16.93-.09-25.37-.3-5.66-5.24-9.33-12-9.68C549.46,304.35,545.69,304.51,541.82,304.51Z" transform="translate(-54.05 -114.84)"/><path class="cls-1" d="M610.09,295.09h12.3c7.85,39.35,15.7,78.7,23.6,118.32a67.05,67.05,0,0,1-12.09.13c-2-9.68-4-19.35-6-29.24H604.61c-2,9.76-4,19.44-6,29.23H586.54C594.4,374,602.19,334.8,610.09,295.09Zm15.85,78.07c-3.05-15.18-6-30-9-44.85l-1.32.11q-4,19.68-8,39.35c-.35,1.7-.46,3.43-.72,5.39Z" transform="translate(-54.05 -114.84)"/><path class="cls-1" d="M722.7,263H712.4q-9.48-31.27-19-62.64l-.79.11v61.92c-3.23,1.45-6.38.29-9.83.9V162.58h9.8q9.61,31.81,19.28,63.79l.82-.05V162.61h10Z" transform="translate(-54.05 -114.84)"/><path class="cls-1" d="M372.8,162.32c7.55,0,14.93-.26,22.27.07,8.94.39,17.57,7.9,17.84,15.49.29,8.3.1,16.61,0,24.91,0,4.32-3.08,7.57-6.15,11,5.35,4.27,6.57,9.56,6.25,15.45-.34,6.17,0,12.36-.1,18.54-.13,8.13-7.76,14.89-17.52,15.23-7.37.25-14.77.05-22.64.05Zm9.92,46.23c2.95.74,5.48.45,8,.38,8.4-.22,11.95-3.15,12.1-10.08.12-5.82.15-11.65,0-17.46-.2-7.27-4.22-10.47-13.08-10.58-2.25,0-4.57-.35-7,.36Zm0,47.09c3,0,5.53.07,8,0,8.34-.28,11.89-3.23,12.07-10.14.1-3.87-.2-7.76.05-11.63,1-15.67-5-15.75-18.93-15.23-.34,0-.67.32-1.22.59Z" transform="translate(-54.05 -114.84)"/><path class="cls-1" d="M566.74,213.69c0,11.14,0,22.27,0,33.41-.05,10.09-8.37,17.17-20.11,17.21-12.14,0-20.52-7-20.53-17.39q-.06-33.4,0-66.81c0-9.85,8.75-17.35,20.11-17.38,11.83,0,20.52,7.37,20.54,17.56C566.76,191.42,566.74,202.56,566.74,213.69Zm-11.44,0h-.15c0-11.46.14-22.92-.07-34.38-.09-4.84-3.3-7.43-8.38-7.66-5.29-.24-9.28,2.42-10.21,6.93a21.23,21.23,0,0,0-.24,4.22q0,30.69,0,61.37c0,1.94-.12,3.87.71,5.75a10,10,0,0,0,10.2,5.75,8.22,8.22,0,0,0,8-7.59,44.45,44.45,0,0,0,.17-4.76Q555.32,228.52,555.3,213.69Z" transform="translate(-54.05 -114.84)"/><path class="cls-1" d="M438.86,162.33c7.76,0,15.34-.26,22.89.07,8.69.37,17.15,7.69,17.22,15.22q.33,35.74,0,71.49c-.05,7.26-7.92,13.61-16.88,13.91-7.58.26-15.18.05-23.24.05Zm11.45,8.83v84.32c3.43,0,6.39.17,9.31,0,6.61-.47,10.45-3.69,10.48-9.29q.19-32.53,0-65.07c0-6.55-4.43-10-12.28-10.25C455.35,170.76,452.81,170.42,450.31,171.16Z" transform="translate(-54.05 -114.84)"/><path class="cls-1" d="M746.45,413.64H738c-1.69-1.6-.94-3.45-1-5.13-.06-16.07-.09-32.14,0-48.21a23.25,23.25,0,0,0-1.89-9.29q-10.54-25.17-20.87-50.41c-.66-1.62-1.93-3.2-1.34-5.38,3.79-.69,7.74-.09,12.33-.39,5.33,13.55,10.63,27,16.43,41.8l16.18-41.24c4.31-.86,8.64-.56,13.42-.15-6.63,16.62-12.94,33-19.78,49.3a53.25,53.25,0,0,0-4.48,22.72c.42,13.59.14,27.19.09,40.79C747.15,409.77,747.63,411.56,746.45,413.64Z" transform="translate(-54.05 -114.84)"/><path class="cls-1" d="M385,404.33h35.37v9H372.73V295.22H385Z" transform="translate(-54.05 -114.84)"/><path class="cls-1" d="M730.66,238.85h9.62c1.13,2.53.33,5.19.56,7.77.51,5.53,4.33,9,10.06,9.06s9.72-3.27,10.2-8.84c.44-5.33-.2-10.24-3.87-15.09-8-10.57-15.11-21.61-22.81-32.34-2.71-3.78-4.21-7.6-3.8-12,.24-2.64,0-5.3,0-8,.13-9.37,8.91-16.62,20.24-16.72,11.17-.09,20.24,7.25,20.4,16.55.05,2.62,0,5.24,0,8.08-3.44.64-6.48.39-10.3.23a76.87,76.87,0,0,0,0-8.06c-.56-5-4.26-7.84-9.86-7.87s-9.6,2.83-10.12,7.69c-.59,5.63-.27,10.94,3.75,16.15,8,10.36,15,21.28,22.63,31.82,5.87,8.05,4.92,16.75,3,25.13s-12.26,13.05-23.08,11.78c-9-1.06-16.42-8.36-16.58-16.36C730.61,245.06,730.66,242.25,730.66,238.85Z" transform="translate(-54.05 -114.84)"/><path class="cls-1" d="M440.49,304.44H429.9v-9.25h35a34.87,34.87,0,0,1-.08,9.12h-12v99.4c3.6,1.18,7.69-.07,11.86.79.88,2.81.23,5.73.42,8.94h-35.3a33.67,33.67,0,0,1,0-9.19h10.71Z" transform="translate(-54.05 -114.84)"/><path class="cls-1" d="M644.58,255.63h28.07c1.49,2.24.65,4.51.69,7.09H634.5V162.63h38.58c.84,2.5.2,5.06.36,8.11H644.53v37.94h20.61c1.2,3.36.62,6.29.53,9.47-7,.85-13.94,0-21.09.55Z" transform="translate(-54.05 -114.84)"/><rect class="cls-1" x="366.52" y="140.87" width="9.77" height="7.15"/><rect class="cls-1" x="433.89" y="140.87" width="9.77" height="7.15"/><path class="cls-2" d="M199,453.71c1.07,2.2,2.9-.23,4.54,1.56-.64-1.64-.79-2.48-1.59-2.95-6.46-10.76-13-21.45-20.21-31.75-18.38-26.34-39.49-50.15-64.72-70.17-3.34-2.65-6.72-5.25-10-7.82l22.08-82.76-17.89-8.22c-.5,1.79-.9,3.14-1.26,4.51q-13.34,50.7-26.65,101.4l-1.35.73c-.35-2.24.82-4.16,1.35-6.21q9.3-35.47,18.58-70.94c.82-3.17,2-6.28,2.27-9.64H85.24c-8.62,33.63-17.2,67.08-25.8,100.62,1.08.67,1.87,1.19,2.68,1.66Q110,401.66,157.84,429.6,178.44,441.62,199,453.71Z" transform="translate(-54.05 -114.84)"/><path class="cls-2" d="M205.45,453.78C230.86,410.29,262,372,302.62,342L275.54,241.47a1.46,1.46,0,0,0-1.59.37c-16.3,12.33-32.7,24.55-47.62,38.57-7.24,6.8-14.07,14-19.1,22.69a13,13,0,0,0-1.83,6.77q.09,65.13,0,130.28Z" transform="translate(-54.05 -114.84)"/><path class="cls-2" d="M135.89,240.06c-9.15,34.23-18.19,68.05-27.26,102,40.15,29.42,70.16,67.4,95.38,109.73V448c0-45.22-.1-90.43.13-135.65a23.24,23.24,0,0,0-4.5-14.27c-.27-.39-.56-.77-.84-1.16-7.4-10.25-16.53-18.82-25.91-27.19C161.2,259.31,148.74,249.89,135.89,240.06Z" transform="translate(-54.05 -114.84)"/><path class="cls-2" d="M88.26,264.15v2.76c-.9,1.08-2.42,1.2-3.28,2.64H90.1c.44-1.29,1.79-2,3.1-2.75,4.14-2.39,8.25-4.84,12.4-7.2a4.46,4.46,0,0,0,2.73-4.12l-17.66,10V226.81l29.08-16.57v38.64l-4.07,2.62c1.27,1.75,2.62,1.08,4.12.43,0,1.87.84,3,2.93,2.83l.21-4.23c3.08-3.52,9-3.61,11-8.39l-.57-.77-10.19,5.75v-38.7c8-4.68,16.21-9.48,24.71-14.47v38.77l-9.87,5.8c-.24,1.13.56,1.33,1.31,1.85l8.59-4.75v11.17c.87,1.05,1.49,1.91,2.9,2V234L175,219.93v38.38l-7.28,4.38c1.67,1.4,1.67,1.4,7.32-1.36V269c1,1.35,1.64,2.33,3.16,2.68V259.59l24.88-14.15v38.87L195.54,289c-.37,1.19.4,1.51,1,2.11l6.48-3.81c1.19,5.5-1.11,11.14,1.82,16.7,3.92-5.37,1-11.21,2.47-16.64l6.23,3.46a2,2,0,0,0,1.68-1.39c-2.39-2.13-5.52-3.2-8.15-5.28V245.51l22.85,13v15.88l.92.09c2.68-4.27.29-9.3,1.57-14.14l8.37,4.59a1.74,1.74,0,0,0,2-1.41c-3.19-2.43-7-3.93-10.55-6.28v-38l25.6,14.38v17.77c1.34.07,2-.73,2.89-1.47V235.5c2.54.84,4.37,2.47,6.54,3.32,1.95.77,3.53,3.71,6.65,1.14l-12.95-7.48v-39l24.81,14V246.3l-8.51-4.51c.89,5.17,5.88,4.89,8.49,7.75.54,1.64-.15,3.72.33,5.69,1.82-.48,1.82-.48,2.27-3.94,1.87-.06,3.31,2.79,5.81.54-1.68-1.78-4.06-2.4-6-3.91V209.15c10.39,5.8,20.46,11.42,30.61,17.07V265l-16.67-9.19c-.39,2.19.95,3.08,2.42,3.91l12.16,6.91c1.22.69,2.67,1.19,2.35,3.17h4.51c9.24,6.52,19.23,11.61,29,17.35v38.44l-15.34-8.67c-.4,2.28.78,3.32,2.4,4.22,4.29,2.37,8.54,4.81,12.93,7.3v45.49c-3,2.39-6.55,3.89-9.7,6-.69-.11-1.4-.19-1.7-1l9.3-5.68q-13.82-51-27.56-101.82H305.91c7.24,29.16,15.56,57.81,22.36,86.85l-1.33-.73c-.45-1.58-.93-3.16-1.34-4.75q-10.91-41.7-21.81-83.39c-1.53-5.84-3.11-11.65-4.75-17.78l-17.1,7.86q11.24,41.85,22.33,83.13c-1.08.88-1.7,1.44-2.37,1.93a308.85,308.85,0,0,0-38.66,34.15c-21.08,21.92-38.66,46.44-53.94,72.66-.37.62-1.56,1.38-.39,2.37.93.48,1.09,1.48,1.58,2.27a18.8,18.8,0,0,1-4.59,2.78,14.2,14.2,0,0,1-5.32-1.75Q129.21,415.76,57.8,374.57c-.51-.3-1-.63-1.6-1V329c4.71-3.49,10.54-5.33,15-9.33a1.82,1.82,0,0,0,.21-2.25L56.31,326V288c8-4.54,16.17-9.21,24.34-13.88,1.54-.88,3.29-1.59,3.25-4.41L56.5,285a6.11,6.11,0,0,1-.32-3.68c9.26-5.24,18.5-10.5,27.78-15.7C85.28,264.92,86.59,264,88.26,264.15Z" transform="translate(-54.05 -114.84)"/><path class="cls-2" d="M56.14,243.83V203l32-18.21v40.94Z" transform="translate(-54.05 -114.84)"/><path class="cls-2" d="M321.25,225.16V185.25l31.3,18v39.65Z" transform="translate(-54.05 -114.84)"/><path class="cls-2" d="M318.76,183.5v39.92l-30.6-17.08V166.26Z" transform="translate(-54.05 -114.84)"/><path class="cls-2" d="M321.23,227.94l31.34,17.8v38.54l-31.34-17.59Z" transform="translate(-54.05 -114.84)"/><path class="cls-2" d="M119.72,207.47,90.79,223.94V183l28.93-16.57Z" transform="translate(-54.05 -114.84)"/><path class="cls-2" d="M88.26,264.15c-1.67-.19-3,.77-4.3,1.51-9.28,5.2-18.52,10.46-27.78,15.7V246.62l32.08-18.16Z" transform="translate(-54.05 -114.84)"/><path class="cls-2" d="M257.7,188.91l-25.54-14.54V134l25.54,14.64Z" transform="translate(-54.05 -114.84)"/><path class="cls-2" d="M147.85,191.18,123,205.71v-41L147.85,150Z" transform="translate(-54.05 -114.84)"/><path class="cls-2" d="M203.76,159.48,179,173.72V132.49l24.35-14.19C203.49,132.33,203.25,145.77,203.76,159.48Z" transform="translate(-54.05 -114.84)"/><path class="cls-2" d="M232.14,177.15l25.63,14.6v39.06l-25.63-14.38Z" transform="translate(-54.05 -114.84)"/><path class="cls-2" d="M260.85,150.34l24.92,14.23v40.08L260.85,190.6Z" transform="translate(-54.05 -114.84)"/><path class="cls-2" d="M175.13,175.43l-24.1,14V148.31l24.1-14.12Z" transform="translate(-54.05 -114.84)"/><path class="cls-2" d="M178.52,218.17l24.63-14.06v38.51l-24.63,14Z" transform="translate(-54.05 -114.84)"/><path class="cls-2" d="M203.39,162.41c-.09,13.46.68,26.11.13,38.92L179,215.39V176.54Z" transform="translate(-54.05 -114.84)"/><path class="cls-2" d="M175.14,217.09c-8,4.63-15.93,9.23-24.15,14v-38.8l24.15-14.05Z" transform="translate(-54.05 -114.84)"/><path class="cls-2" d="M207,118.46l22.73,13.79v40.41l-22.73-13Z" transform="translate(-54.05 -114.84)"/><path class="cls-2" d="M207,201.83v-39.4l22.71,13v39.29Z" transform="translate(-54.05 -114.84)"/><path class="cls-2" d="M229.69,255.63,207,242.69v-38l22.67,12.83Z" transform="translate(-54.05 -114.84)"/><path class="cls-3" d="M210.49,456c-.49-.79-.65-1.79-1.58-2.27,6.58-6.94,13.8-13.2,21-19.53,29.6-26.18,60.94-50.15,93-73.24,1.43-1,3.1-1.83,4.1-3.41l1.33.73c-.15,1.45-1.5,1.76-2.4,2.43-6.63,4.9-13.34,9.69-20,14.6-29.5,21.85-58.29,44.57-85.35,69.42-2.8,2.57-5.54,5.21-8.31,7.83a4.19,4.19,0,0,0,2.54-.69q34.91-20.18,69.81-40.37,28.25-16.32,56.52-32.57c.3.79,1,.87,1.7,1-9.36,6-19.14,11.19-28.74,16.73q-50.32,29.06-100.71,58A7.32,7.32,0,0,1,210.49,456Z" transform="translate(-54.05 -114.84)"/><path class="cls-4" d="M205.45,453.78V440.15q0-65.14,0-130.28a13,13,0,0,1,1.83-6.77c5-8.69,11.86-15.89,19.1-22.69,14.92-14,31.32-26.24,47.62-38.57a1.46,1.46,0,0,1,1.59-.37L302.62,342C262,372,230.86,410.29,205.45,453.78Z" transform="translate(-54.05 -114.84)"/><path class="cls-4" d="M135.89,240.06c12.85,9.83,25.31,19.25,37,29.66,9.38,8.37,18.51,16.94,25.91,27.19.28.39.57.77.84,1.16a23.24,23.24,0,0,1,4.5,14.27c-.23,45.22-.13,90.43-.13,135.65v3.82c-25.22-42.33-55.23-80.31-95.38-109.73C117.7,308.11,126.74,274.29,135.89,240.06Z" transform="translate(-54.05 -114.84)"/><path class="cls-4" d="M83.25,357.51q13.32-50.7,26.65-101.4c.36-1.37.76-2.72,1.26-4.51l17.89,8.22L107,342.58c3.31,2.57,6.69,5.17,10,7.82,25.23,20,46.34,43.83,64.72,70.17,7.19,10.3,13.75,21,20.21,31.75-1.45.82-1.75-.74-2.37-1.3-5.87-5.26-11.57-10.71-17.49-15.91-28.47-25-58.53-48-89.18-70.23C89.62,362.5,86.07,360.47,83.25,357.51Z" transform="translate(-54.05 -114.84)"/><path class="cls-4" d="M326.94,357.5c-1,1.58-2.67,2.38-4.1,3.41-32,23.09-63.38,47.06-93,73.24-7.15,6.33-14.37,12.59-21,19.53-1.17-1,0-1.75.39-2.37,15.28-26.22,32.86-50.74,53.94-72.66A308.85,308.85,0,0,1,301.9,344.5c.67-.49,1.29-1.05,2.37-1.93q-11.1-41.29-22.33-83.13l17.1-7.86c1.64,6.13,3.22,11.94,4.75,17.78Q314.71,311,325.6,352.75C326,354.34,326.49,355.92,326.94,357.5Z" transform="translate(-54.05 -114.84)"/><path class="cls-4" d="M199,453.71q-20.56-12.06-41.14-24.11-47.85-28-95.72-55.87c-.81-.47-1.6-1-2.68-1.66,8.6-33.54,17.18-67,25.8-100.62H104.1c-.28,3.36-1.45,6.47-2.27,9.64Q92.62,316.58,83.25,352c-.53,2.05-1.7,4-1.35,6.21.14,1.44,1.5,1.75,2.39,2.42,3,2.3,6.19,4.47,9.28,6.72,35.71,26,70.67,52.92,103,83.11C197.52,451.39,199,452.05,199,453.71Z" transform="translate(-54.05 -114.84)"/><path class="cls-4" d="M341.11,378.88q-28.26,16.28-56.52,32.57-34.92,20.16-69.81,40.37a4.19,4.19,0,0,1-2.54.69c2.77-2.62,5.51-5.26,8.31-7.83,27.06-24.85,55.85-47.57,85.35-69.42,6.63-4.91,13.34-9.7,20-14.6.9-.67,2.25-1,2.4-2.43-6.8-29-15.12-57.69-22.36-86.85h16.94q13.77,50.85,27.56,101.82Z" transform="translate(-54.05 -114.84)"/><path class="cls-5" d="M199,453.71c0-1.66-1.46-2.32-2.42-3.22-32.32-30.19-67.28-57.12-103-83.11-3.09-2.25-6.23-4.42-9.28-6.72-.89-.67-2.25-1-2.39-2.42l1.35-.73c2.82,3,6.37,5,9.64,7.37,30.65,22.24,60.71,45.23,89.18,70.23,5.92,5.2,11.62,10.65,17.49,15.91.62.56.92,2.12,2.37,1.3.8.47.95,1.31,1.59,2.95C201.88,453.48,200.05,455.91,199,453.71Z" transform="translate(-54.05 -114.84)"/><path class="cls-6" d="M199,453.71c1.07,2.2,2.9-.23,4.54,1.56-.64-1.64-.79-2.48-1.59-2.95-6.46-10.76-13-21.45-20.21-31.75-18.38-26.34-39.49-50.15-64.72-70.17-3.34-2.65-6.72-5.25-10-7.82l22.08-82.76-17.89-8.22c-.5,1.79-.9,3.14-1.26,4.51q-13.34,50.7-26.65,101.4l-1.35.73c-.35-2.24.82-4.16,1.35-6.21q9.3-35.47,18.58-70.94c.82-3.17,2-6.28,2.27-9.64H85.24c-8.62,33.63-17.2,67.08-25.8,100.62,1.08.67,1.87,1.19,2.68,1.66Q110,401.66,157.84,429.6,178.44,441.62,199,453.71Z" transform="translate(-54.05 -114.84)"/><path class="cls-6" d="M205.45,453.78C230.86,410.29,262,372,302.62,342L275.54,241.47a1.46,1.46,0,0,0-1.59.37c-16.3,12.33-32.7,24.55-47.62,38.57-7.24,6.8-14.07,14-19.1,22.69a13,13,0,0,0-1.83,6.77q.09,65.13,0,130.28Z" transform="translate(-54.05 -114.84)"/><path class="cls-6" d="M135.89,240.06c-9.15,34.23-18.19,68.05-27.26,102,40.15,29.42,70.16,67.4,95.38,109.73V448c0-45.22-.1-90.43.13-135.65a23.24,23.24,0,0,0-4.5-14.27c-.27-.39-.56-.77-.84-1.16-7.4-10.25-16.53-18.82-25.91-27.19C161.2,259.31,148.74,249.89,135.89,240.06Z" transform="translate(-54.05 -114.84)"/><path class="cls-6" d="M88.26,264.15v2.76c-.9,1.08-2.42,1.2-3.28,2.64H90.1c.44-1.29,1.79-2,3.1-2.75,4.14-2.39,8.25-4.84,12.4-7.2a4.46,4.46,0,0,0,2.73-4.12l-17.66,10V226.81l29.08-16.57v38.64l-4.07,2.62c1.27,1.75,2.62,1.08,4.12.43,0,1.87.84,3,2.93,2.83l.21-4.23c3.08-3.52,9-3.61,11-8.39l-.57-.77-10.19,5.75v-38.7c8-4.68,16.21-9.48,24.71-14.47v38.77l-9.87,5.8c-.24,1.13.56,1.33,1.31,1.85l8.59-4.75v11.17c.87,1.05,1.49,1.91,2.9,2V234L175,219.93v38.38l-7.28,4.38c1.67,1.4,1.67,1.4,7.32-1.36V269c1,1.35,1.64,2.33,3.16,2.68V259.59l24.88-14.15v38.87L195.54,289c-.37,1.19.4,1.51,1,2.11l6.48-3.81c1.19,5.5-1.11,11.14,1.82,16.7,3.92-5.37,1-11.21,2.47-16.64l6.23,3.46a2,2,0,0,0,1.68-1.39c-2.39-2.13-5.52-3.2-8.15-5.28V245.51l22.85,13v15.88l.92.09c2.68-4.27.29-9.3,1.57-14.14l8.37,4.59a1.74,1.74,0,0,0,2-1.41c-3.19-2.43-7-3.93-10.55-6.28v-38l25.6,14.38v17.77c1.34.07,2-.73,2.89-1.47V235.5c2.54.84,4.37,2.47,6.54,3.32,1.95.77,3.53,3.71,6.65,1.14l-12.95-7.48v-39l24.81,14V246.3l-8.51-4.51c.89,5.17,5.88,4.89,8.49,7.75.54,1.64-.15,3.72.33,5.69,1.82-.48,1.82-.48,2.27-3.94,1.87-.06,3.31,2.79,5.81.54-1.68-1.78-4.06-2.4-6-3.91V209.15c10.39,5.8,20.46,11.42,30.61,17.07V265l-16.67-9.19c-.39,2.19.95,3.08,2.42,3.91l12.16,6.91c1.22.69,2.67,1.19,2.35,3.17h4.51c9.24,6.52,19.23,11.61,29,17.35v38.44l-15.34-8.67c-.4,2.28.78,3.32,2.4,4.22,4.29,2.37,8.54,4.81,12.93,7.3v45.49c-3,2.39-6.55,3.89-9.7,6-.69-.11-1.4-.19-1.7-1l9.3-5.68q-13.82-51-27.56-101.82H305.91c7.24,29.16,15.56,57.81,22.36,86.85l-1.33-.73c-.45-1.58-.93-3.16-1.34-4.75q-10.91-41.7-21.81-83.39c-1.53-5.84-3.11-11.65-4.75-17.78l-17.1,7.86q11.24,41.85,22.33,83.13c-1.08.88-1.7,1.44-2.37,1.93a308.85,308.85,0,0,0-38.66,34.15c-21.08,21.92-38.66,46.44-53.94,72.66-.37.62-1.56,1.38-.39,2.37.93.48,1.09,1.48,1.58,2.27a18.8,18.8,0,0,1-4.59,2.78,14.2,14.2,0,0,1-5.32-1.75Q129.21,415.76,57.8,374.57c-.51-.3-1-.63-1.6-1V329c4.71-3.49,10.54-5.33,15-9.33a1.82,1.82,0,0,0,.21-2.25L56.31,326V288c8-4.54,16.17-9.21,24.34-13.88,1.54-.88,3.29-1.59,3.25-4.41L56.5,285a6.11,6.11,0,0,1-.32-3.68c9.26-5.24,18.5-10.5,27.78-15.7C85.28,264.92,86.59,264,88.26,264.15Z" transform="translate(-54.05 -114.84)"/><path class="cls-6" d="M56.14,243.83V203l32-18.21v40.94Z" transform="translate(-54.05 -114.84)"/><path class="cls-6" d="M321.25,225.16V185.25l31.3,18v39.65Z" transform="translate(-54.05 -114.84)"/><path class="cls-6" d="M318.76,183.5v39.92l-30.6-17.08V166.26Z" transform="translate(-54.05 -114.84)"/><path class="cls-6" d="M321.23,227.94l31.34,17.8v38.54l-31.34-17.59Z" transform="translate(-54.05 -114.84)"/><path class="cls-6" d="M119.72,207.47,90.79,223.94V183l28.93-16.57Z" transform="translate(-54.05 -114.84)"/><path class="cls-6" d="M88.26,264.15c-1.67-.19-3,.77-4.3,1.51-9.28,5.2-18.52,10.46-27.78,15.7V246.62l32.08-18.16Z" transform="translate(-54.05 -114.84)"/><path class="cls-6" d="M257.7,188.91l-25.54-14.54V134l25.54,14.64Z" transform="translate(-54.05 -114.84)"/><path class="cls-6" d="M147.85,191.18,123,205.71v-41L147.85,150Z" transform="translate(-54.05 -114.84)"/><path class="cls-6" d="M203.76,159.48,179,173.72V132.49l24.35-14.19C203.49,132.33,203.25,145.77,203.76,159.48Z" transform="translate(-54.05 -114.84)"/><path class="cls-6" d="M232.14,177.15l25.63,14.6v39.06l-25.63-14.38Z" transform="translate(-54.05 -114.84)"/><path class="cls-6" d="M260.85,150.34l24.92,14.23v40.08L260.85,190.6Z" transform="translate(-54.05 -114.84)"/><path class="cls-6" d="M175.13,175.43l-24.1,14V148.31l24.1-14.12Z" transform="translate(-54.05 -114.84)"/><path class="cls-6" d="M178.52,218.17l24.63-14.06v38.51l-24.63,14Z" transform="translate(-54.05 -114.84)"/><path class="cls-6" d="M203.39,162.41c-.09,13.46.68,26.11.13,38.92L179,215.39V176.54Z" transform="translate(-54.05 -114.84)"/><path class="cls-6" d="M175.14,217.09c-8,4.63-15.93,9.23-24.15,14v-38.8l24.15-14.05Z" transform="translate(-54.05 -114.84)"/><path class="cls-6" d="M207,118.46l22.73,13.79v40.41l-22.73-13Z" transform="translate(-54.05 -114.84)"/><path class="cls-6" d="M207,201.83v-39.4l22.71,13v39.29Z" transform="translate(-54.05 -114.84)"/><path class="cls-6" d="M229.69,255.63,207,242.69v-38l22.67,12.83Z" transform="translate(-54.05 -114.84)"/><path class="cls-7" d="M210.49,456c-.49-.79-.65-1.79-1.58-2.27,6.58-6.94,13.8-13.2,21-19.53,29.6-26.18,60.94-50.15,93-73.24,1.43-1,3.1-1.83,4.1-3.41l1.33.73c-.15,1.45-1.5,1.76-2.4,2.43-6.63,4.9-13.34,9.69-20,14.6-29.5,21.85-58.29,44.57-85.35,69.42-2.8,2.57-5.54,5.21-8.31,7.83a4.19,4.19,0,0,0,2.54-.69q34.91-20.18,69.81-40.37,28.25-16.32,56.52-32.57c.3.79,1,.87,1.7,1-9.36,6-19.14,11.19-28.74,16.73q-50.32,29.06-100.71,58A7.32,7.32,0,0,1,210.49,456Z" transform="translate(-54.05 -114.84)"/><path class="cls-8" d="M205.45,453.78V440.15q0-65.14,0-130.28a13,13,0,0,1,1.83-6.77c5-8.69,11.86-15.89,19.1-22.69,14.92-14,31.32-26.24,47.62-38.57a1.46,1.46,0,0,1,1.59-.37L302.62,342C262,372,230.86,410.29,205.45,453.78Z" transform="translate(-54.05 -114.84)"/><path class="cls-8" d="M135.89,240.06c12.85,9.83,25.31,19.25,37,29.66,9.38,8.37,18.51,16.94,25.91,27.19.28.39.57.77.84,1.16a23.24,23.24,0,0,1,4.5,14.27c-.23,45.22-.13,90.43-.13,135.65v3.82c-25.22-42.33-55.23-80.31-95.38-109.73C117.7,308.11,126.74,274.29,135.89,240.06Z" transform="translate(-54.05 -114.84)"/><path class="cls-8" d="M83.25,357.51q13.32-50.7,26.65-101.4c.36-1.37.76-2.72,1.26-4.51l17.89,8.22L107,342.58c3.31,2.57,6.69,5.17,10,7.82,25.23,20,46.34,43.83,64.72,70.17,7.19,10.3,13.75,21,20.21,31.75-1.45.82-1.75-.74-2.37-1.3-5.87-5.26-11.57-10.71-17.49-15.91-28.47-25-58.53-48-89.18-70.23C89.62,362.5,86.07,360.47,83.25,357.51Z" transform="translate(-54.05 -114.84)"/><path class="cls-8" d="M326.94,357.5c-1,1.58-2.67,2.38-4.1,3.41-32,23.09-63.38,47.06-93,73.24-7.15,6.33-14.37,12.59-21,19.53-1.17-1,0-1.75.39-2.37,15.28-26.22,32.86-50.74,53.94-72.66A308.85,308.85,0,0,1,301.9,344.5c.67-.49,1.29-1.05,2.37-1.93q-11.1-41.29-22.33-83.13l17.1-7.86c1.64,6.13,3.22,11.94,4.75,17.78Q314.71,311,325.6,352.75C326,354.34,326.49,355.92,326.94,357.5Z" transform="translate(-54.05 -114.84)"/><path class="cls-8" d="M199,453.71q-20.56-12.06-41.14-24.11-47.85-28-95.72-55.87c-.81-.47-1.6-1-2.68-1.66,8.6-33.54,17.18-67,25.8-100.62H104.1c-.28,3.36-1.45,6.47-2.27,9.64Q92.62,316.58,83.25,352c-.53,2.05-1.7,4-1.35,6.21.14,1.44,1.5,1.75,2.39,2.42,3,2.3,6.19,4.47,9.28,6.72,35.71,26,70.67,52.92,103,83.11C197.52,451.39,199,452.05,199,453.71Z" transform="translate(-54.05 -114.84)"/><path class="cls-8" d="M341.11,378.88q-28.26,16.28-56.52,32.57-34.92,20.16-69.81,40.37a4.19,4.19,0,0,1-2.54.69c2.77-2.62,5.51-5.26,8.31-7.83,27.06-24.85,55.85-47.57,85.35-69.42,6.63-4.91,13.34-9.7,20-14.6.9-.67,2.25-1,2.4-2.43-6.8-29-15.12-57.69-22.36-86.85h16.94q13.77,50.85,27.56,101.82Z" transform="translate(-54.05 -114.84)"/><path class="cls-9" d="M199,453.71c0-1.66-1.46-2.32-2.42-3.22-32.32-30.19-67.28-57.12-103-83.11-3.09-2.25-6.23-4.42-9.28-6.72-.89-.67-2.25-1-2.39-2.42l1.35-.73c2.82,3,6.37,5,9.64,7.37,30.65,22.24,60.71,45.23,89.18,70.23,5.92,5.2,11.62,10.65,17.49,15.91.62.56.92,2.12,2.37,1.3.8.47.95,1.31,1.59,2.95C201.88,453.48,200.05,455.91,199,453.71Z" transform="translate(-54.05 -114.84)"/></svg>